/* XPM */
static char *GHAASccny2[] = {
/* columns rows colors chars-per-pixel */
"100 40 174 2 ",
"   c #260F47",
".  c #281147",
"X  c #27124A",
"o  c #2B154D",
"O  c #2D1750",
"+  c #2F1A53",
"@  c #311C55",
"#  c #311759",
"$  c #351E5A",
"%  c #37205B",
"&  c #3D285F",
"*  c #391665",
"=  c #3A1D63",
"-  c #3D2464",
";  c #3E2963",
":  c #402667",
">  c #412C66",
",  c #42266A",
"<  c #45286C",
"1  c #48296F",
"2  c #47326C",
"3  c #4A356E",
"4  c #4E3C6F",
"5  c #5D3F6F",
"6  c #472575",
"7  c #492573",
"8  c #4C2B74",
"9  c #4B2679",
"0  c #4F2A7A",
"q  c #502D76",
"w  c #50277B",
"e  c #522C7B",
"r  c #4C3372",
"t  c #4E3A73",
"y  c #533676",
"u  c #523D75",
"i  c #53317D",
"p  c #593978",
"a  c #613E7D",
"s  c #554376",
"d  c #584677",
"f  c #564479",
"g  c #5A457C",
"h  c #5D4C7D",
"j  c #64466E",
"k  c #634275",
"l  c #6A4874",
"z  c #65437C",
"x  c #68477A",
"c  c #6E4D7A",
"v  c #704E78",
"b  c #62517F",
"n  c #755673",
"m  c #7A5B71",
"M  c #7E6168",
"N  c #8B735F",
"B  c #967E5D",
"V  c #815F72",
"C  c #866968",
"Z  c #8D7267",
"A  c #987B65",
"S  c #826272",
"D  c #9C825E",
"F  c #A48B59",
"G  c #A68C5B",
"H  c #AD935D",
"J  c #B1965B",
"K  c #B49A5A",
"L  c #B99F59",
"P  c #BDA553",
"I  c #9B8064",
"U  c #A68A61",
"Y  c #A98E60",
"T  c #C4AD4E",
"R  c #CCB44E",
"E  c #D2BB4D",
"W  c #C0A656",
"Q  c #D1B950",
"!  c #DDC749",
"~  c #E2CB49",
"^  c #EAD344",
"/  c #4D2A81",
"(  c #542D82",
")  c #563181",
"_  c #5A3585",
"`  c #5E3889",
"'  c #613C8C",
"]  c #5E4583",
"[  c #5E4D81",
"{  c #614287",
"}  c #624B84",
"|  c #64448B",
" . c #66498B",
".. c #694B8E",
"X. c #655483",
"o. c #695886",
"O. c #6B538B",
"+. c #6C5C8B",
"@. c #715E8F",
"#. c #6C4D92",
"$. c #6E5392",
"%. c #725595",
"&. c #735D94",
"*. c #765A99",
"=. c #72648E",
"-. c #756591",
";. c #776992",
":. c #7A6C94",
">. c #7B629A",
",. c #7F699E",
"<. c #7E7297",
"1. c #826B9F",
"2. c #83759B",
"3. c #85799D",
"4. c #846CA2",
"5. c #8A74A6",
"6. c #8679A0",
"7. c #8A7BA3",
"8. c #8B76A9",
"9. c #8E7BA9",
"0. c #927DAD",
"q. c #957FB1",
"w. c #8D81A4",
"e. c #9186A6",
"r. c #958BAB",
"t. c #998EAE",
"y. c #9C91AF",
"u. c #9782B1",
"i. c #9985B3",
"p. c #9C8AB5",
"a. c #9D92B2",
"s. c #A18EB9",
"d. c #A195B7",
"f. c #A49AB6",
"g. c #A493BC",
"h. c #A69BBA",
"j. c #AA9ABE",
"k. c #A7A0B8",
"l. c #ACA3BD",
"z. c #B0A9BF",
"x. c #AD9DC1",
"c. c #B09FC2",
"v. c #AFA8C1",
"b. c #B2A4C4",
"n. c #B4ABC4",
"m. c #B5A7C8",
"M. c #B7AACA",
"N. c #B9ACCB",
"B. c #B7B1C5",
"V. c #BAB3C7",
"C. c #BCB3CB",
"Z. c #BFB9CD",
"A. c #C0B5CF",
"S. c #C2BCCE",
"D. c #C1B6D0",
"F. c #C5BBD3",
"G. c #C6C1D1",
"H. c #CAC3D5",
"J. c #CECAD7",
"K. c #CCC4D9",
"L. c #D2CCDB",
"P. c #D6D2DD",
"I. c #D8D4DF",
"U. c #D6CEE0",
"Y. c #D7D0E1",
"T. c #DAD4E3",
"R. c #DDDAE3",
"E. c #E1DDE6",
"W. c #E2DEE9",
"Q. c #E2E1E6",
"!. c #E5E2EB",
"~. c #E9E9EC",
"^. c #EFEEF1",
"/. c #F8F8F9",
/* pixels */
"' ' ' ' ' ' ' ' ' ' ' ' ' ' ' ' ' ' ' ' ' ' ' ' ' ' ' ' ' ' ' ' ' ' ' ' ' ' ' ' ' ' ' ' ' ' ' ' ' ' ' ' ` ' ' ' ' ' ' ' ' ' ' ' ' ' ' ' ' ' ' ' ' ' ' ' ` ' ' ' ' ' ' ' ' ' ' ' ' ' ' ' ' ' ' ' ' ' ' ' ",
"` ` ` ` ` ` ` ` ` ` ` ` ` ` ` ' ` ` ` ' ` ` ` ` ` ` ` ' ` ` ` ` ` ` ` ` ` ` ` ` ` ` ` ` ` ` ` ` ` ` ` ` ` ` ` ` ` ` ` ` ` ` ` ` ` ` ` ` ` ` ` ` ` ' ` ` ` ` ` ` ` ` ` ` ` ' ` ` ` ` ` ` ' ` ` ` ` ` ` ` ",
"` ` ` ` ` ` ` ` ` ` ` ` ` ` ` ` ` ` ` ` ` ` ` ` ` ' ` ` ` ` ` ' ' ` ` ` ` ` ` ` ` ` ` ` ` ` ` ' ` ' ` ` ` ` ` ` ` ' ` ` ` ` ' ` ` ` ` ` ` ` ` ` ` ` ` ` ` ` ` ` ` ` ` ` ` ` ` ` ` ` ` ` ` ` ` ` ` ` ' ` ",
"` ` ` ` ` ` _ ` ` ` ` ` ` ` ` ` ` ` ` ` ` ` ` ` ` ' ' ' ` ` ` ` ` ` ` ` ` ` ` ` ` ` ` ` ` ` ` ` ` ` ` ` ` ` ` ` ` ` ` ` ` ` ` ` ` ` ` ` ` ` ` ` ` ` ` ` ` ` ` ` ` ` ` ` ` ` ` ` ` ` ` ` ` ` ` ` ` ` ` ` ",
"` ` ` _ ` ` ` ` ` ` _ ` ` ` ` ` ` ` _ ` _ ' ' _ ( ' _ ' _ _ ` ` _ ' _ ' ` ` ` ` ` ` _ ` ` ` ` ` ` ` ` ` ` ` _ ` ` ` ` ` ` ` ` ` ` ` _ ` ` ` ` ` ` ` ` ` _ ` ` ` ` ` ` _ ` ` ` ` ` _ ` ` ` ` _ ` ` ` ` ` ",
"_ ` ` ` _ ` ` ` ` _ ` ` ` ` ` _ _ _ ` _ _ _ _ ' ( ' ' _ _ ' _ ' ` _ ` _ ` ` ` ( ` _ ` _ ` _ _ _ ` ` _ ` _ _ ` ` _ _ ` _ ` ` ` _ _ ` ` _ ` _ ` ` ` ` ` ` ` _ ` _ _ ` _ ` ` ` ` ` ` _ _ ` _ _ ` ` ` ` _ ` ",
"_ ` _ _ _ ` _ _ _ _ ` _ _ _ _ _ _ _ _ ' _ ( _ _ _ _ ' _ _ _ _ _ _ _ ` _ _ ` _ _ ` _ ` _ _ _ _ _ _ ` _ _ _ ` _ _ _ ` _ ` _ _ _ _ ` _ _ ` ) ( _ _ ( ` ` _ _ _ _ ` _ _ ` _ _ _ ( ` _ ` _ ` _ _ ` _ _ ` ) ` ",
"_ _ _ _ _ _ _ _ _ _ _ _ _ _ _ _ _ _ _ _ ' 1.) _ _ _ _ _ _ _ _ _ _ _ _ _ _ _ ( ` _ _ _ _ _ _ _ _ _ _ _ _ _ _ _ _ _ _ _ ` _ _ _ _ _ _ _ ` ` %.` _ %.| ) ` _ _ _ _ _ _ _ _ _ _ _ _ _ _ _ _ _ _ _ _ ) ` ` ) ",
"_ _ _ _ _ _ _ _ _ _ _ _ e 4.g.q.i.p.q.q.F.M.( ) _ _ _ _ _ _ _ _ ( _ V A I G Y c _ c _ _ ( _ _ _ _ _ _ _ ) _ _ ( %.u.p.g.b.*._ _ _ _ _ _ i.W.#.x.E.#.( _ _ _ _ _ _ _ _ ( _ _ ( _ _ _ _ _ ) ` ) _ _ _ _ _ ",
"_ e _ _ _ _ e _ i _ _ _ 9 M.p.%.b.U.%.%.c.x.( ) ) ) _ ) ) ) _ ) ( U K ' ` a P S z Q a _ v ' _ i ) _ ) _ _ _ e i.F.$.` ` x.p.e _ _ _ ( e | T...| U...( _ ( _ e _ _ _ i _ _ _ p ( _ ( e _ p _ ) _ ) ) i _ ",
"i ) _ e e ( e _ _ i _ e ( 4.` w i.F.e 9 s.x.9 _ i ) ) ) _ w ) ( V ! ' ) e ( c v ( a _ a Q _ ( ( ( ) ) ( i e $.W.%.9 ( 9 #.%.e e ( _ w e | T.| | U.#.e e _ e e _ e ' e 9 _ e ( _ i ) _ ) _ ( _ i ) ) _ ) ",
") ) i _ e _ _ e e _ e _ ) ( e ( i.F.( e p.N.s.F.4.w | i.M.8.( ) J W ( i _ e _ ( V K a A ^ L Z Y H a C H m w p.T._ ( _ _ e ( ( *.i.m.x.( | U...| U.| _ 0.j.g._ _ 0.g.N.g.*.#.p.M.4.e ) i e _ e _ ) ) e ( ",
"i _ e _ i i _ _ i _ i _ e _ i e p.F.e e i.F.' x.U.) N.%.*.W.| e W J ( ( e _ _ / n ~ a n E n p Z ~ p m Y p 9 m.F.i _ e _ _ e #.F.#...W.8.` T.| | U.' p.9.` T.1.p.g._ L.N...N.| 8.U.' _ e _ ( _ e ) _ i ) ",
"e ( i e i i e i e i e i ( e ( e s.F.e 0 s.x.: $.L.*.E.g.s.A...e J T w i i e e / a E a l E p e _ E m C V / 7 s.W.i i ( e e 6 p.D.0 9 g.C.] Y.| | U.#.L.m.i.A.4.F.i.* j.5.*.W.p.g.A.' e e i i i i i e ( e ",
"i e e e e i i e e e e e e i e e i.F.e 8 i.x.7 | L.*.E.' q 7 e w Z ^ 5 w e e p k k E p l E p w 9 A W F p 0 0 *./.,.6 e e w ..i.L.e 7 e.N.` I.| | U.| U.4.q 7 7 0.K.4.b.` 1.T.p e 7 q q e e e e e e e e e ",
"q e e e 0 e e e e e q e q 0 e e j.U.e 7 s.A.7 %.T.{ P.b.$.4.' 8 e R E l e i D M k ! a k ! n p 9 l ^ C / q 0 0 m.R.$._ e 8.e...!.4.e m.1.] E... .!.| x.T.,.*.%.| K.i.' 7 ` E.b.$.1.' w q e e e q q e e e ",
"q e q q q q 8 e 8 q w e e 8 e 1.n.A.5.} j.A.x 9.A.1.$.F.H.0.8 w 8 p F P F F F q N P C q F T n 7 q P 5 8 q q q e i.F.j.f.b.p 7 5.A.d.5.8 4.F.0.9.D.9.p N.H.g.p O.W.T.U.x.p *.L.S.5.q q q q q 0 0 e q q q ",
"q q q q q 8 8 8 r r q 8 q w e w 7 7 q e 7 7 e 8 1 q 1 0 7 1 r r q 7 6 q 5 p 7 r 7 0 q q 0 0 7 6 C B 9 8 q q q 7 1 q ' p 7 0 q 7 q y 7 8 8 7 8 q 7 q 8 7 q 1 7 4.0.} *.W.4.: 1 0 1 7 q q q q 1 0 q q q q ",
"0 1 0 q q 8 q 8 q 0 q 1 r q r 8 q 7 r q 8 8 q 7 0 1 1 0 q 0 1 0 0 0 q 0 7 0 q 0 0 1 1 q 1 1 0 j P 5 7 q 0 1 0 e 0 0 1 7 q 1 0 0 0 1 r 1 8 8 8 8 8 8 8 8 1 q 0 I.,.* : m...7 1 q 7 q y 0 0 1 r 0 q 0 1 1 ",
"1 0 1 1 8 8 8 8 1 0 1 0 7 7 7 r 7 r 7 7 8 r 7 r 1 0 1 0 1 0 1 q 1 1 1 q 1 1 1 0 0 1 0 1 1 0 6 N B 6 0 7 1 1 0 7 1 1 1 q 1 0 1 1 1 1 0 0 8 8 8 8 8 8 8 8 0 1 , i.T.g.d.&.7 q 1 0 0 7 1 1 0 1 0 1 0 1 1 0 ",
"1 0 1 1 7 0 1 1 1 0 1 1 1 1 1 0 1 8 1 1 7 r 1 1 0 1 1 7 0 7 0 0 1 7 7 0 1 1 q 1 1 1 1 0 1 0 > 0 1 1 7 1 0 1 7 7 1 0 1 1 0 1 1 1 0 1 1 1 1 0 1 0 7 7 1 1 0 1 1 1 } &.p 6 1 1 1 q 1 1 1 0 1 1 6 0 1 0 1 1 ",
"1 1 1 1 1 1 1 1 1 1 1 1 1 1 1 1 1 1 1 1 1 7 @.{ 7 > , : 1 > > , , : < 1 1 1 1 1 1 1 1 1 0 7 1 1 , , , 1 1 , : : 1 1 1 1 1 1 1 1 1 p h 0 > 1 , 0 1 0 1 1 1 1 1 1 , , , 1 1 1 1 1 1 1 1 1 1 1 1 1 1 1 1 1 ",
"1 < < < 1 1 1 1 1 1 1 , 1 > 0 , 1 1 1 , r 0.A.d.0 y 3.0.r , , ] 5.e.X.1 1 < 1 1 < 1 : 1 7 > 1 , g 0.0.} , O.e.3.y , 1 < 1 1 1 > r j.L.1 , 1 7 > 1 < 1 < 1 1 < < > 1 1 1 1 < 1 1 < 1 < 1 1 1 1 1 1 1 1 , ",
"< < < < , , < < : 1 , 1 , 1 , , < 1 1 , 3.3.: r , > @.^.N., , r 7.H.y < : < < : < < < < > 6 > , y 3./.+.= g L.&.1 : < 1 : : 1 1 , @.H., , 1 , > , < , < < : < < 1 1 , , < < : < : < < : 6 ; 1 1 < , < 1 ",
", , , , , , : > , , : : , , , - $ : , : v.:.$ - > - r m.~.6.- = b t.= , , = , , - - , - , , = - - = Z.h.= -.7.$ , , = , , , - = $ @.H.: - - , , > > : : : , , , , , > , , > , , ; ; 6 6 ; 1 1 - , , , : ",
", & , , , , - : , , : : - - f e.b.0.= d T.Z.>.- , - u 7.<./.X.* b i.$ g e.b.g @.h.2.- g , +.f.-.- = o.R.h a.1 : :.y.z.g , =.e.e.d.@.F.y t.t.t , , : : : , - , , , , , , - , , - ; ; ; ; ; - ; 6 , & : : ",
", - & - , - - - - : - ; - y F.g y E.3.3 H.t.y , - - u e.; h.Q.1 g 3.3 b.t 2.J.3 L.w.- J.;.; Z.t - - = n.R.+.@ y.y.- t.L.> e.W.e.3.O.S.3 f.[ - - , - - : - - - - - - - - , - - - - - - - - - - - - , , - ",
"& - - - - - - , ; - - - $ e.H.$ $ y.K.$ V.-.$ - - - u t.> ; H.B.b 2.@.P.e.y.l.: 3.z.s I.b.f 2.= - - $ :.I.2 2 L.+.@ 3 I.O.X.F.$ $ +.J.k.f $ - - - - - - ; - , , - - - ; - - ; - - - - - - - ; - - - - & ",
"& = = & = & & $ - - - - # e.J.$ # 7.S.$ C.:.$ = - = s t.; $ f !.Z.<.@.S.: & % $ h L.7.;.G.t.s $ - - $ @.L.: 2 I.=.O 2 J.X.o.S.% $ +.L.H.e.# & , - - - & & $ , $ $ - - - - - - - - % - - & & % & & & - - ",
"$ & & & $ $ , $ $ & $ & $ d E.+.@ z.2.$ J.2.$ $ - $ h n.2 % + :./.r.3 !.e.s o.; $ I.l.$ S.F.$ & - % # <.I.3 @ z.S.& b V.: ;.J.- @ =.H.s T.3.@ $ & $ $ $ , $ $ & & $ & $ & % & % - % % - & & % & & $ $ & ",
"$ & $ $ & $ $ & $ & $ $ $ $ :.B.t.:.$ b V.f.4 $ $ ; t.Z.2.; $ @ r.2.O :.J.Z.=.% O e.b + ;.:.+ $ % @ h f.V.w.& 2 z.j.e.s & e.V.;.& e.V.h o.S.=.$ $ & $ - & $ $ & $ $ $ & $ & $ $ % % % % @ % % % $ $ & $ ",
"$ $ $ $ $ $ $ $ $ % $ $ $ $ + & & + $ & @ @ & @ $ % @ + % % % @ % % % + % % + % & @ @ % @ % % % % % % % @ % % @ @ & @ @ @ % @ % $ $ @ & @ @ & $ $ $ $ $ $ $ $ $ $ $ $ $ $ $ $ $ $ % % % % @ % % $ $ $ $ ",
"@ @ @ @ @ @ @ @ @ @ @ @ @ @ @ @ @ @ @ @ @ @ @ @ @ @ @ @ @ @ @ @ + @ % + + + % @ @ @ @ @ @ @ @ @ @ @ @ @ @ @ @ @ @ + @ @ @ @ @ @ + + % + % + + % + % + % + % + % + % + + % % + % + % + % + % + + @ @ @ @ ",
"@ @ @ @ @ @ @ @ @ @ @ @ @ @ @ @ @ @ @ @ @ @ @ O @ @ + @ @ @ @ @ @ + @ + + @ + + @ + @ @ @ @ @ + @ @ @ @ @ @ @ @ @ @ + @ @ @ @ @ + + + + + + + + + + + + + + + + + + + + + + + + + + + + + + + + @ @ @ @ ",
"@ + @ + @ @ O @ @ @ O @ @ @ O O @ O @ O @ O @ @ + + @ @ @ + @ @ + + + + @ O + + + + + + @ + + + + @ @ + @ + + @ O @ + @ + + + + + + + + + + + + + + + + + + + + + + + + + + + + + + + + + + + + @ + + + ",
"O o O O O o O O O O O O O O O O O O O O O O O o O o O O o o o o O O O O O O O O O O O o o + o + o o + o O O o o O O o O O O O o o + o + + + + o + o + + o + o + + + o + + + X + o + o + + + o + o + o O ",
"o o o o o o o o o o o o X X O o O O X O X o o o o o o o o o o o o o o o O O o o o o o o o o o o o o o o o o o o o o o o o o o o o o o o o o O . . o . o o o . o . + . . . + . + . o o o o o o . o O o o ",
"o . . . X X X X X X X X X X X X X X X X X X X X o X X X X X X X X X X X . . X . X X X X X X X X X o X X X X X X X X X . X X X X . . . . o . . . o . X . o . X . X o . X . . X X X . . o X o . . . . . . ",
"    X X                             X                                       . .                                           .             X X     X       X       X X         X           X X     X X . X ",
".       . . . . . . . . . . . . . . . . . . . . . . X X . . . . . . . . . . . . . . . . . . . . . . . . . . . . . . . . . X X X . .       X     X X   . X X   .   X . . . .   X . . .     X . .   . . . "
};
