/* XPM */
static char *GHAASunh[] = {
/* columns rows colors chars-per-pixel */
"100 122 63 1 ",
"  c #1F3C8C",
". c #223F8E",
"X c #26418F",
"o c #264290",
"O c #2C4692",
"+ c #2E4893",
"@ c #304A95",
"# c #375098",
"$ c #3D559B",
"% c #40569C",
"& c #415A9D",
"* c #465EA0",
"= c #485FA1",
"- c #4E64A4",
"; c #5467A6",
": c #5568A6",
"> c #5B6DA9",
", c #5F71AB",
"< c #6576AE",
"1 c #6678B0",
"2 c #6E7EB3",
"3 c #717EB4",
"4 c #7383B6",
"5 c #7786B8",
"6 c #7887B9",
"7 c #7C8CBB",
"8 c #7F90BD",
"9 c #818FBD",
"0 c #8191BE",
"q c #8B96C2",
"w c #8D9AC3",
"e c #919DC5",
"r c #92A0C7",
"t c #94A1C8",
"y c #9FA7CC",
"u c #9FAACE",
"i c #A0ACCE",
"p c #A7B1D1",
"a c #ACB4D3",
"s c #B1B6D5",
"d c #B2B9D6",
"f c #B7BED9",
"g c #B9BEDA",
"h c #BDC2DC",
"j c #C0C5DD",
"k c #C4C9DF",
"l c #C5CAE1",
"z c #CACFE3",
"x c #CED2E5",
"c c #D2D5E7",
"v c #D4D7E8",
"b c #D6D9E9",
"n c #D9DCEB",
"m c #DDE1ED",
"M c #E1E3EF",
"N c #E4E6F0",
"B c #EAECF4",
"V c #EFF0F6",
"C c #F0F2F7",
"Z c #F3F4F9",
"A c #F7F8FB",
"S c #FFFFFF",
"D c None",
/* pixels */
".X...............................................................................................X..",
"........o......o................................................................................X X.",
"o ................................................... .... ..................................... X .",
" X X........................................................ .......................... ........X X ",
"X........o.............................O.................................... ...............X .. X..",
".............o............................................ ... ............ ............ ...  X . ..",
"........................................................... ............. .. .............X X XX.. .",
".......o....o............o.................................... ......................... X ..X......",
".o.............o............................. ............................................XX........",
"........ o................................................................................XX. ......",
"........o.o                     ....              ......................................X X ........",
".......o  o,rrrrrrerrrrreerrrerreeeeteeeeteerterq9O........ ............................ X X........",
"........ XXuASSSSSSSSSSSSSSSSSSSSSSSSSSSSSSSSSSSZn%..................................... X.X X......",
"........X XyASSSSSSSSSSSSSSSSSSSSSSSSSSSSSSSSSSSAn%...... ..............................X .   ......",
".o...... .XySSSSSSSSSSSSSSSSSSSSSSSSSSSSSSSSSSSSAn% .......................... ......... X X........",
"........X XySSSSSSSSSSSSSSSSSSSSSSSSSSSSSSSSSSSSAv%......... ...........................X X ........",
".....o o..oySSSSSSSSSSSSSSSSSSSSSSSSSSSSSSSSSSSSSb%.................. ....... ....X X ..............",
"......  . ouSSSSSSSSSSSSSSSSSSSSSSSSSSSSSSSSSSSSSb% ..........................  .. ..X .... X.......",
".... oo  XXySSSSSSSSSSSSSSSSSSSSSSSSSSSSSSSSSSSSSb$................................. X ..... .......",
"...o.. o. XySSSSSSSSSSSSSSSSSSSSSSSSSSSSSSSSSSSSSb$............................... X. X ............",
"..........ouSSSSSSSSSSSSSSSSSSSSSSSSSSSSSSSSSSSSSn$ .... ............................. X.. X....X. .",
"..........oySSSSSSSSSSSSSSSSSSSSSSSSSSSSSSSSSSSSSn$........ ..........................X ..X ....X...",
"..........XySSSSSSSSSSSSSSSSSSSSSSSSSSSSSSSSSSSSSn$ ..................X..................X  .... ...",
"......... XySSSSSSSSSSSSSSSSSSSSSSSSSSSSSSSSSSSSSn$..................................X X  .X.... .. ",
"..........oiSSSSSSSSSSSSSSSSAASSSSSSSSSSSSSSSSSSSn$X...X .............X......o ...X.............. ..",
"...........iSSSSSSSSSCCCCZZZVVCZSSSSSSSSZVCCCCCVZv&oo+@o..@o........ooo+o+++o+oX.  ............... X",
"..........oiSSSSSSSSc,;;;;;;;;;;hSSSSSSl,;;;:;;;;3hlklkkxllj;...... 6lllllllllg* ...................",
"...........iSSSSSSSSk+  .  . .. 6SSSSSSh. .....  ;BSSSSSASSZ<.......eSSSSSSSSSB- X..................",
"...........iASSSSSSSk+.X........&MSSSSSjO....... ;BSSSSSSSSZ<.......eSSSSSSSSSB- X. X X..........X X",
"..o........iSSSSSSSSl+ .........oaSSSSSjO........;BSSSSSSSSC<.......eSSSSSSSSSB;  XX .X.........X  X",
"...........iSSSSSSSSl@XX........X6SSSSShO....... ;BSSSSSSSSV,.......wSSSSSSSSSB-       X........ X X",
"...........iSSSSSSSSl+ ..........&nSSSSjO......  ;BSSSSSSSSZ<.......eSSSSSSSSSB- .X.XX  ....o...X X ",
"...X..... .ySSSSSSSAk@ ..........OsSSSSj.........;NZSSSSSSSC1.......wSSSSSSSSSB-....................",
"..........OySSSSSSSAk@........... 4ZSSSj......X..;BASSSSSSSC1.......eSSSSSSSSSB- ...................",
"X.........OySSSSSSAAk@ .......... %bSSSj%....XX..:BASSSSSSSC< ..... eSSSSSSSSSB- .......... ........",
"......... .ySSSSSSAAk@. ..........OiSSSh....XX...:VASSSSSSSC<.......eSSSSSSSSSB- ...................",
"...........iSSSSSSSSk% ... .. . ...1CSSj@........;BASSSSSSSC<.......eSSSSSSSSSB-....................",
"...X.......ySSSSSASSk@ ... ..  ....$bSSjO........;BSSSSSSSSC<.......eSSSSSSSSSB- ...................",
".X.........iSSSSSSSSk@. ...........OiSSj@....... ;NASSSSSSSC< ......wSSSSSSSSSB; ...................",
"...........iSSSSSSSSk@ .X. .........1CSj........ ;BASSSSSSSC<.......eSSSSSSSSSB-........o...........",
"...........iSSSSSSSSk@..............%xZjO....... ;BSSSSSSSSC1... o  wSSSSSSSSSB; ......o o .........",
"...........iSSSSSSSSk@...............iSjO....... ;BSSSSSSSSC1...X o wSSSSSSSSSB- .......o ..........",
"X .........ySSSSSSSSk+ ..............,ZjO........;BSSSSSSSSC<... XX eSSSSSSSSSB-.............o......",
" X.........iASSSSSSSk+...............%cjO....... ;BSSSSSSSSC<...o . eSSSSSSSSSB- ...X.... o.........",
"o..........ySSSSSSSSk@X...............ijO........;BSSSSSSSSC<..     wSSSSSSSSSB- ...................",
"..........XiSSSSSSSSk@................<sO....... ;BSSSSSSSSC9&-&*--&pSSSSSSSSSB; ...................",
"..........XySSSSSSSSk@................#9@........;BSSSSSSSSSZCCCVZVZZSSSSSSSSSB- ......X..o.........",
"..........XySSSSSSSSk+.................;O....... ;BSSSSSSSSSSSSSSSSSSSSSSSSSSSB- ...X...............",
"...........iASSSSSSSl+ ......................... ;BSSSSSSSSSSSSSSSSSSSSSSSSSSSB; ....... o oo o o...",
"..o........iASSSSSSSl@.......................... ;BSSSSSSSSSSSSSSSSSSSSSSSSSSSB-  o.. o.o o  o o....",
"...........iSSSSSSSSl@X.......XO................ ;BSSSSSSSSSSSSSSSSSSSSSSSSSSSB-  ...... o o oo ....",
"..........oiSSSSSSSSl+ .....X.@-.................;BSSSSSSSSSSSSSSSSSSSSSSSSSSSB- o. o. oo o o  o....",
"....o...X oySSSSSSSSl+X ......&0.... ........... ;BSSSSSSSSSSSSSSSSSSSSSSSSSSSB- o...... ..oo o ...o",
"........ .XySSSSSSSSl+ .......&d% .............. ;BSSSSSSSSSSSSSSSSSSSSSSSSSSSB- . .....o   .. o....",
".o......X XySSSSSSSSk@X.......&x,............... ;BSSSSSSSSSSSSSSSSSSSSSSSSSSSB; .......  o ........",
"........X.XySSSSSSSSl@  ....  $mt................;BSSSSSSSSSSAZZAZZZZSSSSSSSSSB- ..o....oo o... ....",
"........  oySSSSSSSSk+.X X .X &mz@ X  X......... ;BSSSSSSSSAp<<1111<ySSSSSSSSSV- .......... o  o....",
".........XoySSSSSSSSk@. X X. X&mV: ..X X.........;BSSSSSSSSS9  .    2SSSSSSSSSN-...........o oo.....",
"..........oySSSSSSSSk@X. X X  &mA0XX. .......... ;BSSSSSSSSS9...... 2SSSSSSSSSB- ..........oo.......",
"......... ouSSSSSSSSk@.....X X&mAj+...X ........ ;BSSSSSSSSS9...... 2SSSSSSSSSB-............  ......",
"....X... .XySSSSSSSSk@X ....X $mAN=. . ......... ;BSSSSSSSSSq...... 2SSSSSSSSSN- ....o..............",
"........X.XySSSSSSSSk@  ....  $mAA5X.X...........;BSSSSSSSSA7 ..... 2SSSSSSSSSV- o.......o.......o..",
"..o... . .XySSSSSSSSk@.X....X %mSSsX............ ;BSSSSSSSSS0...... 2SSSSSSSSSB- ...............o...",
"......X.X .eSSSSSSSSk@ .. .. X%mSSb% ............;BSSSSSSSSS0...... 2SSSSSSSAAB- .....o......o......",
".oo.....X XwSSSSSSSSl@........$nSSZ2 ........... ;BSSSSSSSSZ9...... 2SSSSSSSSSB- X X...o ...........",
"......o. . 8SSSSSSSSl@....... &mSSSi............ ;BSSSSSSSSS9...... 2SSSSSSSSSB- oo  o..............",
"...... o.. 4ZSSSSSSSk@....... &mSSSc$........... ;BSSSSSSSSS0.....X 2SSSSSSSSSB; . .o  o............",
"....... .  >CSSSSSSSk+........&mSSSB>............;BSSSSSSSSS9...... 2SSSSSSSSSB-  X. o ..o..o.......",
".......... -BSSSSSSSk@.  X X. &mSSSSe........... ;BSSSSSSSSA0.. ... 2SSSSSSSSSB- o..................",
"...........$mSSSSSSSk@... X...&mSSSSl+...........;BSSSSSSSSS0..o... 2SSSSSSSSSB-  .. o..............",
"Do.........@lSSSSSSSl@..X ... $mSSSSB;.......... ;BSSSSSSSSS0 ....  2SSSSSSSSSB-   ...............oD",
"Do.........opSSSSSSSl@.. X....&mSSSSS0.......... ;BSSSSSSSSAq ....  2SSSSSSSSSB- oo. o.............D",
"D....o....o.qASSSSSSl+ XX.... $mSSSSSfoXX X .... ;BSSSSSSSSS0...... 2SSSSSSSSSB; .............o....D",
"Do......... ,ZSSSSSSl+ X......$mSSSSSM=  X ......;BSSSSSSSSS0 ..... 2SSSSSSSSSB-...o...............D",
"D......... .$nSSSSSSl@. ...XX.$mSSSSSS4 X X...X. ;BSSSSSSSSS7...... 2SSSSSSSSSB-..........o........D",
"DDo.....o...odSSSSSSl+      ..$mSSSSSSa.         ;BSSSSSSSSZq...... 2SSSSSSSSSB- .................DD",
"DD...... ....8ASSSSSmq88888888eBSSSSSSMw888808087wupuuiiiuiu>.o ....-piiuuiiipt$.....o..o ........DD",
"DD.......... -NASSSSSSSSSSSSSSSSSSSSSSSSSSSSSSSSSn$   .  . . X......   . . .  . ........ ...o.....DD",
"DDo...o..o...+hASSSSSSSSSSSSSSSSSSSSSSSSSSSSSSSSSn$ X.. ....X o ....................... o o....o..DD",
"DDDX......... 4ASSSSSSSSSSSSSSSSSSSSSSSSSSSSSSSSSn$. X...... o o..................... oo o.......DDD",
"DDDo..........$vSSSSSSSSSSSSSSSSSSSSSSSSSSSSSSSSAn$ o............................................DDD",
"DDDo..........oeSSSSSSSSSSSSSSSSSSSSSSSSSSSSSSSSSm$................oo............................DDD",
"DDDD...........$vSSSSSSSSSSSSSSSSSSSSSSSSSSSSSSSSv$.............o......o.................o......DDDD",
"DDDD...........owSSSSSSSSSSSSSSSSSSSSSSSSSSSSSSSSm$.........o................o...............o..DDDD",
"DDDDX...........$cSSSSSSSSSSSSSSSSSSSSSSSSSSSSSSSv$o.......o.o........................... o ....DDDD",
"DDDDD............6ZSSSSSSSSSSSSSSSSSSSSSSSSSSSSSSv$......................................o o..oDDDDD",
"DDDDDo...........odSSSSSSSSSSSSSSSSSSSSSSSSSSSSSSm$.....o.......o..o.................... .o oooDDDDD",
"DDDDDD............-nSSSSSSSSSSSSSSSSSSSSSSSSSSSSSv$.............  o .....o..o.........o. o o.oDDDDDD",
"DDDDDDXX......o.X .4VSSSSSSSSSSSSSSSSSSSSSSSSSSSSv$X . X........o  o  o ..o..... .... o o ...oDDDDDD",
"DDDDDDD......... ..otZSSSSSSSSSSSSSSSSSSSSSSSSSSSn$ X.......o...o.o o  o........o..o.o oo....DDDDDDD",
"DDDDDDDX........X.. @aSSSSSSSSSSSSSSSSSSSSSSSSSSSn$.............  o ..o ... .........o.. ...oDDDDDDD",
"DDDDDDDDo..........X $hSSSSSSSSSSSSSSSSSSSSSSSSSSn$ ............ o o. o. o.o......... .....oDDDDDDDD",
"DDDDDDDDDo..........X &kSSSSSSSSSSSSSSSSSSSSSSSSSm$ .................o..o o o.....o.......oDDDDDDDDD",
"DDDDDDDDDo.........X X -lSSSSSSSSSSSSSSSSSSSSSSSSv$.X................... o o. o... ..o.....DDDDDDDDD",
"DDDDDDDDDD..........X X.;cSSSSSSSSSSSSSSSSSSSSSSSv$.............o........ ....... o ......DDDDDDDDDD",
"DDDDDDDDDDD...........  X;xSSSSSSSSSSSSSSSSSSSSSSn$......o...............o o ...oo.......DDDDDDDDDDD",
"DDDDDDDDDDDXX....X........-kSSSSSSSSSSSSSSSSSSSSSn$ .X............................o X ...DDDDDDDDDDD",
"DDDDDDDDDDDD...............-hSSSSSSSSSSSSSSSSSSSSn$....X.. X...........o......o... X X.XDDDDDDDDDDDD",
"DDDDDDDDDDDDDX..............$aASSSSSSSSSSSSSSSSSSn$ .....XX ......................X.X..DDDDDDDDDDDDD",
"DDDDDDDDDDDDDD...............@rCSSSSSSSSSSSSSSSSSn$... .. X..X........................DDDDDDDDDDDDDD",
"DDDDDDDDDDDDDDDX..............o4mSSSSSSSSSSSSSSSSn$ ... ...X.........................DDDDDDDDDDDDDDD",
"DDDDDDDDDDDDDDDD.X..............>jSSSSSSSSSSSSSSSn$.o..o............................DDDDDDDDDDDDDDDD",
"DDDDDDDDDDDDDDDDDX.............. #rBSSSSSSSSSSSSSn$  . ...........................XDDDDDDDDDDDDDDDDD",
"DDDDDDDDDDDDDDDDDD..............X X,hSSSSSSSSSSSSv$....X...........o.......o......DDDDDDDDDDDDDDDDDD",
"DDDDDDDDDDDDDDDDDDDX.X..............#0vSSSSSSSSSSv$ X...............o ...........DDDDDDDDDDDDDDDDDDD",
"DDDDDDDDDDDDDDDDDDDD..................-tMSSSSSSSSm$X... ............. o.........DDDDDDDDDD..o..DDDDD",
"DDDDDDDDDDDDDDDDDDDDDX..............X .X;uMSSSSSSv$ ..o.......o.............oo.DDDDDDDDDD...DD...DDD",
"DDDDDDDDDDDDDDDDDDDDDD.................. o-evZSSSv$.X ........ ..oo ......o.o@DDDDDDDDDDX.DDDDDD..DD",
"DDDDDDDDDDDDDDDDDDDDDDDX.................X o&4gBSv&.o........o...........ooo.DDDDDDDDDD..DD....DD..D",
"DDDDDDDDDDDDDDDDDDDDDDDDDX................. ..@;wp#.....o........... o o.ooDDDDDDDDDDD..DD..D.o.DX.D",
"DDDDDDDDDDDDDDDDDDDDDDDDDD..................X . .oo................... o..DDDDDDDDDDDD.XDD..DDo.DD.D",
"DDDDDDDDDDDDDDDDDDDDDDDDDDD................X X............... o...... oooDDDDDDDDDDDDD..DD... .DDD.D",
"DDDDDDDDDDDDDDDDDDDDDDDDDDDDDX X..........................o o ........oDDDDDDDDDDDDDDDooDD..Do.DDD.D",
"DDDDDDDDDDDDDDDDDDDDDDDDDDDDDDXX.......................... o o....oo..DDDDDDDDDDDDDDDD..DD..DD..D..D",
"DDDDDDDDDDDDDDDDDDDDDDDDDDDDDDDD.XX..............o.......... o o...oDDDDDDDDDDDDDDDDDDDooD..DD..D.XD",
"DDDDDDDDDDDDDDDDDDDDDDDDDDDDDDDDDD..........................o . ..DDDDDDDDDDDDDDDDDDDDD...DDDDDD..DD",
"DDDDDDDDDDDDDDDDDDDDDDDDDDDDDDDDDDDD.XX.o o ..X ..........o....oDDDDDDDDDDDDDDDDDDDDDDDDo...DD...DDD",
"DDDDDDDDDDDDDDDDDDDDDDDDDDDDDDDDDDDDDD.. o o.X X............ .DDDDDDDDDDDDDDDDDDDDDDDDDDDD.....oDDDD",
"DDDDDDDDDDDDDDDDDDDDDDDDDDDDDDDDDDDDDDDDo .................oDDDDDDDDDDDDDDDDDDDDDDDDDDDDDDDDDDDDDDDD",
"DDDDDDDDDDDDDDDDDDDDDDDDDDDDDDDDDDDDDDDDDDD.......o......DDDDDDDDDDDDDDDDDDDDDDDDDDDDDDDDDDDDDDDDDDD",
"DDDDDDDDDDDDDDDDDDDDDDDDDDDDDDDDDDDDDDDDDDDDDX.X....o .DDDDDDDDDDDDDDDDDDDDDDDDDDDDDDDDDDDDDDDDDDDDD",
"DDDDDDDDDDDDDDDDDDDDDDDDDDDDDDDDDDDDDDDDDDDDDDDD....DDDDDDDDDDDDDDDDDDDDDDDDDDDDDDDDDDDDDDDDDDDDDDDD"
};
