/* XPM */
static char *GHAASunh[] = {
/* columns rows colors chars-per-pixel */
"100 66 239 2 ",
"   c #002E7F",
".  c #002E80",
"X  c #002F84",
"o  c #002F8D",
"O  c #003085",
"+  c #003186",
"@  c #003187",
"#  c #003188",
"$  c #003189",
"%  c #003289",
"&  c #00328A",
"*  c #00328B",
"=  c #00328C",
"-  c #00338C",
";  c #00338D",
":  c #00308E",
">  c #00318E",
",  c #00318F",
"<  c #00338E",
"1  c #00328F",
"2  c #00338F",
"3  c #02328F",
"4  c #00348F",
"5  c #003390",
"6  c #013390",
"7  c #023390",
"8  c #003490",
"9  c #013490",
"0  c #013590",
"q  c #013591",
"w  c #023490",
"e  c #023591",
"r  c #023691",
"t  c #033691",
"y  c #053892",
"u  c #063993",
"i  c #073993",
"p  c #073A93",
"a  c #083A93",
"s  c #083B94",
"d  c #093B94",
"f  c #0A3C94",
"g  c #0B3C95",
"h  c #0B3D95",
"j  c #0D3E95",
"k  c #0D3E96",
"l  c #0D3F96",
"z  c #0E3F96",
"x  c #0F3F96",
"c  c #0F4096",
"v  c #0F4097",
"b  c #104197",
"n  c #114298",
"m  c #124298",
"M  c #124398",
"N  c #144499",
"B  c #154599",
"V  c #16469A",
"C  c #18479A",
"Z  c #18479B",
"A  c #18489B",
"S  c #19489B",
"D  c #1C4A9C",
"F  c #1E4B9D",
"G  c #1E4C9D",
"H  c #1F4C9D",
"J  c #1F4D9D",
"K  c #1F4D9E",
"L  c #204E9E",
"P  c #214E9E",
"I  c #214F9E",
"U  c #214F9F",
"Y  c #224F9F",
"T  c #23509F",
"R  c #2451A0",
"E  c #2A55A2",
"W  c #2A56A2",
"Q  c #2C57A3",
"!  c #345DA6",
"~  c #365FA7",
"^  c #3760A8",
"/  c #3860A8",
"(  c #3861A8",
")  c #3861A9",
"_  c #3A61A9",
"`  c #3A62A9",
"'  c #3A63A9",
"]  c #3B63AA",
"[  c #3C64AA",
"{  c #3E64AA",
"}  c #3E65AB",
"|  c #3F65AB",
" . c #3F66AB",
".. c #3F66AC",
"X. c #4065AB",
"o. c #4168AC",
"O. c #4269AD",
"+. c #4369AD",
"@. c #446AAD",
"#. c #446AAE",
"$. c #456BAE",
"%. c #476CAF",
"&. c #486DAF",
"*. c #4A6FB0",
"=. c #4B70B1",
"-. c #4D71B2",
";. c #5074B3",
":. c #5175B3",
">. c #5276B4",
",. c #587AB6",
"<. c #5D7EB8",
"1. c #6080B9",
"2. c #6081BA",
"3. c #6181BA",
"4. c #6282BA",
"5. c #6383BB",
"6. c #6484BB",
"7. c #6685BC",
"8. c #6786BD",
"9. c #6988BE",
"0. c #6A88BE",
"q. c #6A89BE",
"w. c #6B89BF",
"e. c #6B8ABF",
"r. c #6E8CC0",
"t. c #708EC1",
"y. c #728FC1",
"u. c #728FC2",
"i. c #7390C2",
"p. c #7591C3",
"a. c #7793C4",
"s. c #7C97C6",
"d. c #7F99C7",
"f. c #7F9AC7",
"g. c #809AC8",
"h. c #819BC8",
"j. c #829BC8",
"k. c #829CC8",
"l. c #849DC9",
"z. c #87A0CB",
"x. c #8BA2CC",
"c. c #8BA3CC",
"v. c #8CA3CD",
"b. c #8CA4CD",
"n. c #8EA5CE",
"m. c #90A7CF",
"M. c #92A8CF",
"N. c #93A8CF",
"B. c #93A9D0",
"V. c #94AAD0",
"C. c #95ABD1",
"Z. c #97ACD2",
"A. c #98ADD2",
"S. c #9BAFD3",
"D. c #9EB2D5",
"F. c #9FB2D5",
"G. c #9FB3D5",
"H. c #A0B3D5",
"J. c #A0B3D6",
"K. c #A2B5D6",
"L. c #A3B6D7",
"P. c #A4B6D7",
"I. c #A4B7D7",
"U. c #A6B8D8",
"Y. c #A9BBDA",
"T. c #ABBCDA",
"R. c #B0C0DC",
"E. c #B2C1DD",
"W. c #B6C5DF",
"Q. c #BBC8E1",
"!. c #BBC9E1",
"~. c #BBC9E2",
"^. c #BCC9E1",
"/. c #BECCE3",
"(. c #BFCCE3",
"). c #C0CDE3",
"_. c #C0CDE4",
"`. c #C2CEE4",
"'. c #C2CFE4",
"]. c #C3CFE5",
"[. c #C4D0E5",
"{. c #C5D1E5",
"}. c #C5D1E6",
"|. c #C6D1E6",
" X c #C7D2E6",
".X c #CAD5E8",
"XX c #CCD6E8",
"oX c #D0DAEA",
"OX c #D1DAEB",
"+X c #D2DBEB",
"@X c #D4DDEC",
"#X c #D5DDEC",
"$X c #D6DEED",
"%X c #D7DFED",
"&X c #D7E0ED",
"*X c #D8E0EE",
"=X c #D9E1EE",
"-X c #DAE1EE",
";X c #DAE2EF",
":X c #DBE2EF",
">X c #DCE3EF",
",X c #DFE5F1",
"<X c #E0E6F1",
"1X c #E0E7F1",
"2X c #E1E7F2",
"3X c #E2E8F2",
"4X c #E3E8F2",
"5X c #E5EAF3",
"6X c #EAEEF5",
"7X c #EBEFF6",
"8X c #EDF1F7",
"9X c #EFF2F7",
"0X c #EFF2F8",
"qX c #F0F3F8",
"wX c #F1F4F8",
"eX c #F2F4F9",
"rX c #F2F5F9",
"tX c #F3F6F9",
"yX c #F3F6FA",
"uX c #F4F6F9",
"iX c #F4F6FA",
"pX c #F5F7FA",
"aX c #F7F8FB",
"sX c #F8F9FC",
"dX c #F9FAFC",
"fX c #FAFBFC",
"gX c #FBFBFC",
"hX c #FBFCFD",
"jX c #FCFCFD",
"kX c #FCFDFD",
"lX c #FDFDFD",
"zX c #FDFDFE",
"xX c #FDFEFE",
"cX c #FEFEFE",
"vX c #FFFEFE",
"bX c #FFFFFE",
"nX c #FEFEFF",
"mX c white",
"MX c None",
/* pixels */
"MXMXMXMXMXMXMXMXMXMXMXMXMXMXMXMXMXMXMXMXMXMXMX4 8 8 8 8 8 8 8 8 8 8 8 8 8 8 8 8 8 8 8 8 8 8 8 8 8 8 8 8 8 8 8 8 8 8 8 8 8 8 8 8 8 8 8 8 8 8 8 8 8 8 8 8 & MXMXMXMXMXMXMXMXMXMXMXMXMXMXMXMXMXMXMXMXMXMXMX",
"MXMXMXMXMXMXMXMXMXMXMXMXMXMXMXMXMXMXMXMXMXMXMX4 8 8 8 8 8 8 8 8 8 8 8 8 8 8 8 8 8 8 8 8 8 8 8 8 8 8 8 8 8 8 8 8 8 8 8 8 8 8 8 8 8 8 8 8 8 8 8 8 8 8 8 8 & MXMXMXMXMXMXMXMXMXMXMXMXMXMXMXMXMXMXMXMXMXMXMX",
"MXMXMXMXMXMXMXMXMXMXMXMXMXMXMXMXMXMXMXMXMXMXMX4 8 8 8 8 8 8 8 8 8 8 8 8 8 8 8 8 8 8 8 8 8 8 8 8 8 8 8 8 8 8 8 8 8 8 8 8 8 8 8 8 8 8 8 8 8 8 8 8 8 8 8 8 & MXMXMXMXMXMXMXMXMXMXMXMXMXMXMXMXMXMXMXMXMXMXMX",
"MXMXMXMXMXMXMXMXMXMXMXMXMXMXMXMXMXMXMXMXMXMXMX4 8 8 8 8 8 8 8 8 8 8 8 8 8 8 8 8 8 8 8 8 8 8 8 8 8 8 8 8 8 8 8 8 8 8 8 8 8 8 8 8 8 8 8 8 8 8 8 8 8 8 8 8 & MXMXMXMXMXMXMXMXMXMXMXMXMXMXMXMXMXMXMXMXMXMXMX",
"MXMXMXMXMXMXMXMXMXMXMXMXMXMXMXMXMXMXMXMXMXMXMX4 8 8 8 8 8 5 5 5 5 5 5 5 5 5 5 5 5 5 5 5 5 5 5 5 5 5 8 8 8 8 8 8 8 8 8 8 8 8 8 8 8 8 8 8 8 8 8 8 8 8 8 8 & MXMXMXMXMXMXMXMXMXMXMXMXMXMXMXMXMXMXMXMXMXMXMX",
"MXMXMXMXMXMXMXMXMXMXMXMXMXMXMXMXMXMXMXMXMXMXMX4 8 8 8 8 q g k j j j j j j j j j j j j j j j j j j h q 8 8 8 8 8 8 8 8 8 8 8 8 8 8 8 8 8 8 8 8 8 8 8 8 8 & MXMXMXMXMXMXMXMXMXMXMXMXMXMXMXMXMXMXMXMXMXMXMX",
"MXMXMXMXMXMXMXMXMXMXMXMXMXMXMXMXMXMXMXMXMXMXMX2 8 8 8 5 m F.~.Q.Q.Q.Q.Q.Q.Q.Q.Q.Q.Q.Q.Q.Q.Q.Q.Q.!.I.V 2 8 8 8 8 8 8 8 8 8 8 8 8 8 8 8 8 8 8 8 8 8 8 8 8 & MXMXMXMXMXMXMXMXMXMXMXMXMXMXMXMXMXMXMXMXMXMXMX",
"MXMXMXMXMXMXMXMXMXMXMXMXMXMXMXMXMXMXMXMXMXMXMX4 8 8 8 2 S :XmXmXmXmXmXmXmXmXmXmXmXmXmXmXmXmXmXmXmX4XK 1 8 8 8 8 8 8 8 8 8 8 8 8 8 8 8 8 8 8 8 8 8 8 8 8 & MXMXMXMXMXMXMXMXMXMXMXMXMXMXMXMXMXMXMXMXMXMXMX",
"MXMXMXMXMXMXMXMXMXMXMXMXMXMXMXMXMXMXMXMXMXMXMX4 8 8 8 2 Z *XmXcXcXcXcXcXcXcXcXcXcXcXcXcXcXcXcXcXmX<XG 1 8 8 8 8 8 8 8 8 8 8 8 8 8 8 8 8 8 8 8 8 8 8 8 8 & MXMXMXMXMXMXMXMXMXMXMXMXMXMXMXMXMXMXMXMXMXMXMX",
"MXMXMXMXMXMXMXMXMXMXMXMXMXMXMXMXMXMXMXMXMXMXMX4 8 8 8 2 Z *XmXcXcXcXcXcXcXcXcXcXcXcXcXcXcXcXcXcXmX<XG 1 8 8 8 8 8 8 8 8 8 8 8 8 8 8 8 8 8 8 8 8 8 8 8 8 & MXMXMXMXMXMXMXMXMXMXMXMXMXMXMXMXMXMXMXMXMXMXMX",
"MXMXMXMXMXMXMXMXMXMXMXMXMXMXMXMXMXMXMXMXMXMXMX4 8 8 8 2 Z *XmXcXcXcXcXcXcXcXcXcXcXcXcXcXcXcXcXcXmX<XG 1 8 8 8 8 8 8 8 8 8 8 8 8 8 8 8 8 8 8 8 8 8 8 8 8 & MXMXMXMXMXMXMXMXMXMXMXMXMXMXMXMXMXMXMXMXMXMXMX",
"MXMXMXMXMXMXMXMXMXMXMXMXMXMXMXMXMXMXMXMXMXMXMX4 8 8 8 2 Z *XmXcXcXcXcXcXcXcXcXcXcXcXcXcXcXcXcXcXmX<XG 1 8 8 8 8 8 8 8 8 8 8 8 8 8 8 8 8 8 8 8 8 8 8 8 8 & MXMXMXMXMXMXMXMXMXMXMXMXMXMXMXMXMXMXMXMXMXMXMX",
"MXMXMXMXMXMXMXMXMXMXMXMXMXMXMXMXMXMXMXMXMXMXMX4 8 8 8 2 Z *XmXcXcXcXbXbXbXbXbXbXcXcXcXcXvXbXbXbXmX1XF , 5 5 5 8 8 8 8 8 5 5 5 5 5 5 8 8 8 8 8 8 8 8 8 8 & MXMXMXMXMXMXMXMXMXMXMXMXMXMXMXMXMXMXMXMXMXMXMX",
"MXMXMXMXMXMXMXMXMXMXMXMXMXMXMXMXMXMXMXMXMXMXMX4 8 8 8 2 Z *XmXcXcXzXrX9X0X0X0X0XdXcXcXcXaX9X0X0XqX@XE x c c v s 8 8 8 q j v c c v h 0 8 8 8 8 8 8 8 8 8 & MXMXMXMXMXMXMXMXMXMXMXMXMXMXMXMXMXMXMXMXMXMXMX",
"MXMXMXMXMXMXMXMXMXMXMXMXMXMXMXMXMXMXMXMXMXMXMX4 8 8 8 2 Z *XmXcXbXiX9.{  . . .X.P.nXcXmXJ.{  . .| ;.E.(.(.(._.9.8 8 2 M K.).(.(.).M.f 5 8 8 8 8 8 8 8 8 & MXMXMXMXMXMXMXMXMXMXMXMXMXMXMXMXMXMXMXMXMXMXMX",
"MXMXMXMXMXMXMXMXMXMXMXMXMXMXMXMXMXMXMXMXMXMXMX4 8 8 8 2 Z *XmXcXbXqX~ o , , , o *.yXbXmXf.o , , : J 5XmXmXmXmXn.8 8 2 S -XmXmXmXmX[.l 5 8 8 8 8 8 8 8 8 & MXMXMXMXMXMXMXMXMXMXMXMXMXMXMXMXMXMXMXMXMXMXMX",
"MXMXMXMXMXMXMXMXMXMXMXMXMXMXMXMXMXMXMXMXMXMXMX4 8 8 8 2 Z *XmXcXbXqX( 1 8 8 8 2 C XXmXmXh., 8 8 1 I 3XmXcXcXmXv.8 8 2 Z %XmXcXcXmX`.k 5 8 8 8 8 8 8 8 8 & MXMXMXMXMXMXMXMXMXMXMXMXMXMXMXMXMXMXMXMXMXMXMX",
"MXMXMXMXMXMXMXMXMXMXMXMXMXMXMXMXMXMXMXMXMXMXMX4 8 8 8 2 Z *XmXcXbXqX( 1 8 8 8 8 w c.nXmXh., 8 8 1 I 3XmXcXcXmXv.8 8 2 Z %XmXcXcXmX`.k 5 8 8 8 8 8 8 8 8 & MXMXMXMXMXMXMXMXMXMXMXMXMXMXMXMXMXMXMXMXMXMXMX",
"MXMXMXMXMXMXMXMXMXMXMXMXMXMXMXMXMXMXMXMXMXMXMX4 8 8 8 2 Z *XmXcXbXqX( 1 8 8 8 8 , $.eXmXh., 8 8 1 I 4XmXcXcXmXv.8 8 2 Z %XmXcXcXmX`.k 5 8 8 8 8 8 8 8 8 & MXMXMXMXMXMXMXMXMXMXMXMXMXMXMXMXMXMXMXMXMXMXMX",
"MXMXMXMXMXMXMXMXMXMXMXMXMXMXMXMXMXMXMXMXMXMXMX4 8 8 8 2 Z *XmXcXbXqX) 1 8 8 8 8 2 N  XmXh., 8 8 1 I 4XmXcXcXmXv.8 8 2 Z %XmXcXcXmX`.j 5 8 8 8 8 8 8 8 8 & MXMXMXMXMXMXMXMXMXMXMXMXMXMXMXMXMXMXMXMXMXMXMX",
"MXMXMXMXMXMXMXMXMXMXMXMXMXMXMXMXMXMXMXMXMXMXMX4 8 8 8 2 A *XmXcXbXqX( 1 8 8 8 8 8 6 l.mXh., 8 8 1 I 4XmXcXcXmXv.8 8 2 Z %XmXcXcXmX`.j 5 8 8 8 8 8 8 8 8 & MXMXMXMXMXMXMXMXMXMXMXMXMXMXMXMXMXMXMXMXMXMXMX",
"MXMXMXMXMXMXMXMXMXMXMXMXMXMXMXMXMXMXMXMXMXMXMX4 8 8 8 2 A *XmXcXbXqX( 1 8 8 8 8 8 1 ..wXj., 8 8 1 I 4XmXcXcXmXv.8 8 2 Z %XmXcXcXmX`.j 5 8 8 8 8 8 8 8 8 & MXMXMXMXMXMXMXMXMXMXMXMXMXMXMXMXMXMXMXMXMXMXMX",
"MXMXMXMXMXMXMXMXMXMXMXMXMXMXMXMXMXMXMXMXMXMXMX4 8 8 8 2 A *XmXcXbXqX) 1 8 8 8 8 8 5 b [.l., 8 8 1 I 4XmXcXcXmXv.8 8 2 Z %XmXcXcXmX`.k 5 8 8 8 8 8 8 8 8 & MXMXMXMXMXMXMXMXMXMXMXMXMXMXMXMXMXMXMXMXMXMXMX",
"MXMXMXMXMXMXMXMXMXMXMXMXMXMXMXMXMXMXMXMXMXMXMX4 8 8 8 2 A *XmXcXbXqX) 1 8 8 8 8 8 8 6 d.k., 8 8 1 U 4XmXcXcXmXx.1 > : B %XmXcXcXmX`.k 5 8 8 8 8 8 8 8 8 & MXMXMXMXMXMXMXMXMXMXMXMXMXMXMXMXMXMXMXMXMXMXMX",
"MXMXMXMXMXMXMXMXMXMXMXMXMXMXMXMXMXMXMXMXMXMXMX4 8 8 8 2 Z *XmXcXbXqX( 1 8 8 8 8 8 8 1 [ r.2 8 8 1 U 4XmXcXcXmXU.] ` _ -.<XmXcXcXmX`.j 5 8 8 8 8 8 8 8 8 & MXMXMXMXMXMXMXMXMXMXMXMXMXMXMXMXMXMXMXMXMXMXMX",
"MXMXMXMXMXMXMXMXMXMXMXMXMXMXMXMXMXMXMXMXMXMXMX4 8 8 8 2 A *XmXcXbXqX( 1 8 8 8 8 8 8 5 b } 8 8 8 1 I 4XmXcXcXcXdXtXtXtXiXkXcXcXcXmX`.j 5 8 8 8 8 8 8 8 8 & MXMXMXMXMXMXMXMXMXMXMXMXMXMXMXMXMXMXMXMXMXMXMX",
"MXMXMXMXMXMXMXMXMXMXMXMXMXMXMXMXMXMXMXMXMXMXMX4 8 8 8 2 A *XmXcXbXqX( 1 8 8 8 8 8 8 8 q p 8 8 8 1 I 4XmXcXcXcXcXvXvXvXcXcXcXcXcXmX`.k 5 8 8 8 8 8 8 8 8 & MXMXMXMXMXMXMXMXMXMXMXMXMXMXMXMXMXMXMXMXMXMXMX",
"MXMXMXMXMXMXMXMXMXMXMXMXMXMXMXMXMXMXMXMXMXMXMX4 8 8 8 2 Z *XmXcXbXqX( 1 8 8 5 Z s 8 8 8 8 8 8 8 1 I 4XmXcXcXcXcXcXcXcXcXcXcXcXcXmX`.k 5 8 8 8 8 8 8 8 8 & MXMXMXMXMXMXMXMXMXMXMXMXMXMXMXMXMXMXMXMXMXMXMX",
"MXMXMXMXMXMXMXMXMXMXMXMXMXMXMXMXMXMXMXMXMXMXMX4 8 8 8 2 Z *XmXcXbXqX( 1 8 8 1 %.W 1 8 8 8 8 8 8 1 I 4XmXcXcXcXcXcXcXcXcXcXcXcXcXmX`.k 5 8 8 8 8 8 8 8 8 & MXMXMXMXMXMXMXMXMXMXMXMXMXMXMXMXMXMXMXMXMXMXMX",
"MXMXMXMXMXMXMXMXMXMXMXMXMXMXMXMXMXMXMXMXMXMXMX4 8 8 8 2 Z *XmXcXbXqX) 1 8 8 > <.6.1 8 8 8 8 8 8 1 I 4XmXcXcXcXcXbXbXbXbXcXcXcXcXmX`.k 5 8 8 8 8 8 8 8 8 & MXMXMXMXMXMXMXMXMXMXMXMXMXMXMXMXMXMXMXMXMXMXMX",
"MXMXMXMXMXMXMXMXMXMXMXMXMXMXMXMXMXMXMXMXMXMXMX4 8 8 8 2 Z *XmXcXbXqX) 1 8 8 > 5.L.i 8 8 8 8 8 8 1 I 4XmXcXcXmX.Xp.u.y.s.,XmXcXcXmX`.k 5 8 8 8 8 8 8 8 8 & MXMXMXMXMXMXMXMXMXMXMXMXMXMXMXMXMXMXMXMXMXMXMX",
"MXMXMXMXMXMXMXMXMXMXMXMXMXMXMXMXMXMXMXMXMXMXMX4 8 8 8 2 Z *XmXcXbXqX( 1 8 8 > 4.&XT 1 8 8 8 8 8 1 I 3XmXcXcXmXD.t 1 , b {.mXcXcXmX`.j 5 8 8 8 8 8 8 8 8 & MXMXMXMXMXMXMXMXMXMXMXMXMXMXMXMXMXMXMXMXMXMXMX",
"MXMXMXMXMXMXMXMXMXMXMXMXMXMXMXMXMXMXMXMXMXMXMX4 8 8 8 2 C *XmXcXbXqX( 1 8 8 > 2.iX,., 8 8 8 8 8 1 I 4XmXcXcXmXG.y 8 2 m }.mXcXcXmX`.j 5 8 8 8 8 8 8 8 8 & MXMXMXMXMXMXMXMXMXMXMXMXMXMXMXMXMXMXMXMXMXMXMX",
"MXMXMXMXMXMXMXMXMXMXMXMXMXMXMXMXMXMXMXMXMXMXMX= 8 8 8 2 B $XmXcXbXqX( 1 8 8 > 1.cXA.t 8 8 8 8 8 1 U 4XmXcXcXmXG.y 8 2 m }.mXcXcXmX`.j 5 8 8 8 8 8 8 8 8 & MXMXMXMXMXMXMXMXMXMXMXMXMXMXMXMXMXMXMXMXMXMXMX",
"MXMXMXMXMXMXMXMXMXMXMXMXMXMXMXMXMXMXMXMXMXMXMX& 8 8 8 5 n OXmXcXbXqX( 1 8 8 > 1.zXoXS 2 8 8 8 8 1 U 4XmXcXcXmXG.y 8 2 m }.mXcXcXmX`.k 5 8 8 8 8 8 8 8 8 & MXMXMXMXMXMXMXMXMXMXMXMXMXMXMXMXMXMXMXMXMXMXMX",
"MXMXMXMXMXMXMXMXMXMXMXMXMXMXMXMXMXMXMXMXMXMXMX% 8 8 8 5 l [.mXcXbXqX( 1 8 8 > 1.hXiX&., 8 8 8 8 1 I 4XmXcXcXmXG.y 8 2 m }.mXcXcXmX`.k 5 8 8 8 8 8 8 8 8 $ MXMXMXMXMXMXMXMXMXMXMXMXMXMXMXMXMXMXMXMXMXMXMX",
"MXMXMXMXMXMXMXMXMXMXMXMXMXMXMXMXMXMXMXMXMXMXMX$ 8 8 8 5 d R.mXcXbXqX) 1 8 8 > 1.fXmXz.9 8 8 8 8 1 I 4XmXcXcXmXG.y 8 2 m }.mXcXcXmX`.k 5 8 8 8 8 8 8 8 8 % MXMXMXMXMXMXMXMXMXMXMXMXMXMXMXMXMXMXMXMXMXMXMX",
"MXMXMXMXMXMXMXMXMXMXMXMXMXMXMXMXMXMXMXMXMXMXMX; 8 8 8 8 t C.mXcXbXqX) 1 8 8 > 1.gXmX].m 5 8 8 8 1 I 4XmXcXcXmXG.y 8 2 m }.mXcXcXmX`.k 5 8 8 8 8 8 8 8 8 ; MXMXMXMXMXMXMXMXMXMXMXMXMXMXMXMXMXMXMXMXMXMXMX",
"MXMXMXMXMXMXMXMXMXMXMXMXMXMXMXMXMXMXMXMXMXMXMX- 8 8 8 8 , i.cXcXbXqX( 1 8 8 > 1.gXmX8X' 1 8 8 8 1 I 4XmXcXcXmXG.y 8 2 m }.mXcXcXmX`.j 5 8 8 8 8 8 8 8 8 * MXMXMXMXMXMXMXMXMXMXMXMXMXMXMXMXMXMXMXMXMXMXMX",
"MXMXMXMXMXMXMXMXMXMXMXMXMXMXMXMXMXMXMXMXMXMXMX. 8 8 8 8 > =.uXbXbXqX/ , 8 8 : 1.gXvXxXa.1 8 8 8 1 P 4XmXcXcXmXG.y 8 2 m |.mXcXcXmX'.k 5 8 8 8 8 8 8 8 8   MXMXMXMXMXMXMXMXMXMXMXMXMXMXMXMXMXMXMXMXMXMXMX",
"MXMXMXMXMXMXMXMXMXMXMXMXMXMXMXMXMXMXMXMXMXMXMXMX8 8 8 8 1 Y >XmXbXqX` 7 r r 3 3.gXcXmXW.z e r r w T 2XzXjXjXzXD.y 8 2 m [.zXjXjXzX).k 5 8 8 8 8 8 8 8 8 MXMXMXMXMXMXMXMXMXMXMXMXMXMXMXMXMXMXMXMXMXMXMXMX",
"MXMXMXMXMXMXMXMXMXMXMXMXMXMXMXMXMXMXMXMXMXMXMXMX; 8 8 8 5 a Y.mXcXsXT.B.V.V.N.^.lXcXbX8XH.B.V.V.V.m.t.0.q.q.e.+.r 8 8 p >.w.q.q.e.:.y 8 8 8 8 8 8 8 8 ; MXMXMXMXMXMXMXMXMXMXMXMXMXMXMXMXMXMXMXMXMXMXMXMX",
"MXMXMXMXMXMXMXMXMXMXMXMXMXMXMXMXMXMXMXMXMXMXMXMX= 8 8 8 8 1 5.fXcXcXmXmXmXmXmXmXcXcXcXbXmXmXmXmXmX3XD : , , , 1 8 8 8 8 1 , , , , 1 8 8 8 8 8 8 8 8 8 * MXMXMXMXMXMXMXMXMXMXMXMXMXMXMXMXMXMXMXMXMXMXMXMX",
"MXMXMXMXMXMXMXMXMXMXMXMXMXMXMXMXMXMXMXMXMXMXMXMXO 8 8 8 8 1 L #XmXcXcXcXcXcXcXcXcXcXcXcXcXcXcXcXmX<XG 1 8 8 8 8 8 8 8 8 8 8 8 8 8 8 8 8 8 8 8 8 8 8 8 O MXMXMXMXMXMXMXMXMXMXMXMXMXMXMXMXMXMXMXMXMXMXMXMX",
"MXMXMXMXMXMXMXMXMXMXMXMXMXMXMXMXMXMXMXMXMXMXMXMXMX< 8 8 8 8 w g.zXcXcXcXcXcXcXcXcXcXcXcXcXcXcXcXmX<XG 1 8 8 8 8 8 8 8 8 8 8 8 8 8 8 8 8 8 8 8 8 8 8 < MXMXMXMXMXMXMXMXMXMXMXMXMXMXMXMXMXMXMXMXMXMXMXMXMX",
"MXMXMXMXMXMXMXMXMXMXMXMXMXMXMXMXMXMXMXMXMXMXMXMXMX* 8 8 8 8 1 R @XmXcXcXcXcXcXcXcXcXcXcXcXcXcXcXmX<XG 1 8 8 8 8 8 8 8 8 8 8 8 8 8 8 8 8 8 8 8 8 8 8 & MXMXMXMXMXMXMXMXMXMXMXMXMXMXMXMXMXMXMXMXMXMXMXMXMX",
"MXMXMXMXMXMXMXMXMXMXMXMXMXMXMXMXMXMXMXMXMXMXMXMXMXMX4 8 8 8 8 6 8.aXvXcXcXcXcXcXcXcXcXcXcXcXcXcXmX<XG 1 8 8 8 8 8 8 8 8 8 8 8 8 8 8 8 8 8 8 8 8 8 4 MXMXMXMXMXMXMXMXMXMXMXMXMXMXMXMXMXMXMXMXMXMXMXMXMXMX",
"MXMXMXMXMXMXMXMXMXMXMXMXMXMXMXMXMXMXMXMXMXMXMXMXMXMX* 8 8 8 8 5 k L.cXcXcXcXcXcXcXcXcXcXcXcXcXcXmX<XG 1 8 8 8 8 8 8 8 8 8 8 8 8 8 8 8 8 8 8 8 8 8 * MXMXMXMXMXMXMXMXMXMXMXMXMXMXMXMXMXMXMXMXMXMXMXMXMXMX",
"MXMXMXMXMXMXMXMXMXMXMXMXMXMXMXMXMXMXMXMXMXMXMXMXMXMXMX4 8 8 8 8 1 R {.mXcXcXcXcXcXcXcXcXcXcXcXcXmX<XG 1 8 8 8 8 8 8 8 8 8 8 8 8 8 8 8 8 8 8 8 8 4 MXMXMXMXMXMXMXMXMXMXMXMXMXMXMXMXMXMXMXMXMXMXMXMXMXMXMX",
"MXMXMXMXMXMXMXMXMXMXMXMXMXMXMXMXMXMXMXMXMXMXMXMXMXMXMX& 8 8 8 8 8 1 ^ @XmXcXcXcXcXcXcXcXcXcXcXcXmX<XG 1 8 8 8 8 8 8 8 8 8 8 8 8 8 8 8 8 8 8 8 8 % MXMXMXMXMXMXMXMXMXMXMXMXMXMXMXMXMXMXMXMXMXMXMXMXMXMXMX",
"MXMXMXMXMXMXMXMXMXMXMXMXMXMXMXMXMXMXMXMXMXMXMXMXMXMXMXMX; 8 8 8 8 8 2 @.;XmXcXcXcXcXcXcXcXcXcXcXmX<XG 1 8 8 8 8 8 8 8 8 8 8 8 8 8 8 8 8 8 8 8 ; MXMXMXMXMXMXMXMXMXMXMXMXMXMXMXMXMXMXMXMXMXMXMXMXMXMXMXMX",
"MXMXMXMXMXMXMXMXMXMXMXMXMXMXMXMXMXMXMXMXMXMXMXMXMXMXMXMXMX4 8 8 8 8 8 6 &.;XmXcXcXcXcXcXcXcXcXcXmX<XG 1 8 8 8 8 8 8 8 8 8 8 8 8 8 8 8 8 8 8 4 MXMXMXMXMXMXMXMXMXMXMXMXMXMXMXMXMXMXMXMXMXMXMXMXMXMXMXMXMX",
"MXMXMXMXMXMXMXMXMXMXMXMXMXMXMXMXMXMXMXMXMXMXMXMXMXMXMXMXMX# 8 8 8 8 8 8 5 O.+XmXcXcXcXcXcXcXcXcXmX<XG 1 8 8 8 8 8 8 8 8 8 8 8 8 8 8 8 8 8 8 @ MXMXMXMXMXMXMXMXMXMXMXMXMXMXMXMXMXMXMXMXMXMXMXMXMXMXMXMXMX",
"MXMXMXMXMXMXMXMXMXMXMXMXMXMXMXMXMXMXMXMXMXMXMXMXMXMXMXMXMXMX# 8 8 8 8 8 8 2 ! /.cXbXcXcXcXcXcXcXmX<XG 1 8 8 8 8 8 8 8 8 8 8 8 8 8 8 8 8 8 # MXMXMXMXMXMXMXMXMXMXMXMXMXMXMXMXMXMXMXMXMXMXMXMXMXMXMXMXMXMX",
"MXMXMXMXMXMXMXMXMXMXMXMXMXMXMXMXMXMXMXMXMXMXMXMXMXMXMXMXMXMXMX& 8 8 8 8 8 8 1 H S.pXmXcXcXcXcXcXmX<XG 1 8 8 8 8 8 8 8 8 8 8 8 8 8 8 8 8 & MXMXMXMXMXMXMXMXMXMXMXMXMXMXMXMXMXMXMXMXMXMXMXMXMXMXMXMXMXMXMX",
"MXMXMXMXMXMXMXMXMXMXMXMXMXMXMXMXMXMXMXMXMXMXMXMXMXMXMXMXMXMXMXMX= 8 8 8 8 8 8 1 g 7.*XmXmXcXcXcXmX<XG 1 8 8 8 8 8 8 8 8 8 8 8 8 8 8 8 % MXMXMXMXMXMXMXMXMXMXMXMXMXMXMXMXMXMXMXMXMXMXMXMXMXMXMXMXMXMXMXMX",
"MXMXMXMXMXMXMXMXMXMXMXMXMXMXMXMXMXMXMXMXMXMXMXMXMXMXMXMXMXMXMXMXMX% 8 8 8 8 8 8 5 5 Q Z.7XmXmXcXmX<XG 1 8 8 8 8 8 8 8 8 8 8 8 8 8 8 % MXMXMXMXMXMXMXMXMXMXMXMXMXMXMXMXMXMXMXMXMXMXMXMXMXMXMXMXMXMXMXMXMX",
"MXMXMXMXMXMXMXMXMXMXMXMXMXMXMXMXMXMXMXMXMXMXMXMXMXMXMXMXMXMXMXMXMXMX# 4 8 8 8 8 8 8 1 u o.L.6XmXmX<XG 1 8 8 8 8 8 8 8 8 8 8 8 8 8 @ MXMXMXMXMXMXMXMXMXMXMXMXMXMXMXMXMXMXMXMXMXMXMXMXMXMXMXMXMXMXMXMXMXMX",
"MXMXMXMXMXMXMXMXMXMXMXMXMXMXMXMXMXMXMXMXMXMXMXMXMXMXMXMXMXMXMXMXMXMXMX@ 4 8 8 8 8 8 8 8 1 a ' b.@X=XG 1 8 8 8 8 8 8 8 8 8 8 8 4 @ MXMXMXMXMXMXMXMXMXMXMXMXMXMXMXMXMXMXMXMXMXMXMXMXMXMXMXMXMXMXMXMXMXMXMX",
"MXMXMXMXMXMXMXMXMXMXMXMXMXMXMXMXMXMXMXMXMXMXMXMXMXMXMXMXMXMXMXMXMXMXMXMXMX; 8 8 8 8 8 8 8 8 1 0 G #.k 5 8 8 8 8 8 8 8 8 8 8 ; MXMXMXMXMXMXMXMXMXMXMXMXMXMXMXMXMXMXMXMXMXMXMXMXMXMXMXMXMXMXMXMXMXMXMXMXMX",
"MXMXMXMXMXMXMXMXMXMXMXMXMXMXMXMXMXMXMXMXMXMXMXMXMXMXMXMXMXMXMXMXMXMXMXMXMXMX& 4 8 8 8 8 8 8 8 8 2 1 8 8 8 8 8 8 8 8 8 8 4 % MXMXMXMXMXMXMXMXMXMXMXMXMXMXMXMXMXMXMXMXMXMXMXMXMXMXMXMXMXMXMXMXMXMXMXMXMXMX",
"MXMXMXMXMXMXMXMXMXMXMXMXMXMXMXMXMXMXMXMXMXMXMXMXMXMXMXMXMXMXMXMXMXMXMXMXMXMXMXMX; 8 8 8 8 8 8 8 8 8 8 8 8 8 8 8 8 8 8 - MXMXMXMXMXMXMXMXMXMXMXMXMXMXMXMXMXMXMXMXMXMXMXMXMXMXMXMXMXMXMXMXMXMXMXMXMXMXMXMX",
"MXMXMXMXMXMXMXMXMXMXMXMXMXMXMXMXMXMXMXMXMXMXMXMXMXMXMXMXMXMXMXMXMXMXMXMXMXMXMXMXMX@ ; 8 8 8 8 8 8 8 8 8 8 8 8 8 8 ; + MXMXMXMXMXMXMXMXMXMXMXMXMXMXMXMXMXMXMXMXMXMXMXMXMXMXMXMXMXMXMXMXMXMXMXMXMXMXMXMXMX",
"MXMXMXMXMXMXMXMXMXMXMXMXMXMXMXMXMXMXMXMXMXMXMXMXMXMXMXMXMXMXMXMXMXMXMXMXMXMXMXMXMXMXMXO - 4 8 8 8 8 8 8 8 8 4 - O MXMXMXMXMXMXMXMXMXMXMXMXMXMXMXMXMXMXMXMXMXMXMXMXMXMXMXMXMXMXMXMXMXMXMXMXMXMXMXMXMXMXMX",
"MXMXMXMXMXMXMXMXMXMXMXMXMXMXMXMXMXMXMXMXMXMXMXMXMXMXMXMXMXMXMXMXMXMXMXMXMXMXMXMXMXMXMXMXMXMX& < 4 8 8 4 < & MXMXMXMXMXMXMXMXMXMXMXMXMXMXMXMXMXMXMXMXMXMXMXMXMXMXMXMXMXMXMXMXMXMXMXMXMXMXMXMXMXMXMXMXMXMX",
"MXMXMXMXMXMXMXMXMXMXMXMXMXMXMXMXMXMXMXMXMXMXMXMXMXMXMXMXMXMXMXMXMXMXMXMXMXMXMXMXMXMXMXMXMXMXMXMXX # # X MXMXMXMXMXMXMXMXMXMXMXMXMXMXMXMXMXMXMXMXMXMXMXMXMXMXMXMXMXMXMXMXMXMXMXMXMXMXMXMXMXMXMXMXMXMXMXMX"
};
